# xmcd
#
# Track frame offsets: 
#        150
#        18715
#        43545
#        66760
#        122872
#        151090
#        177017
#        208350
#        237185
#        252480
#        270772
#
# Disc length: 3853 seconds
#
# Revision: 1
# Processed by: cddbd v1.5.2PL0 Copyright (c) Steve Scherf et al.
# Submitted via: ExactAudioCopyFreeDBPlugin 1.0
#
DISCID=930f0b0b
DTITLE=Gary Moore - Out In The Fields The Very Best of [Disc 2]
DYEAR=1998
DGENRE=Blues
TTITLE0=Stop Messin' Around [Live]
TTITLE1=Out In The Fields [Live]
TTITLE2=Reach For The Sky [Live]
TTITLE3=The Loner [Live]
TTITLE4=All Messed Up [Live]
TTITLE5=Thunder Rising [Live]
TTITLE6=Over The Hills and Far Away [Live]
TTITLE7=Military Man [Live]
TTITLE8=Devil In Her Heart
TTITLE9=Emerald
TTITLE10=Livin' On Dreams [Remix]
EXTD=
EXTT0=
EXTT1=
EXTT2=
EXTT3=
EXTT4=
EXTT5=
EXTT6=
EXTT7=
EXTT8=
EXTT9=
EXTT10=
PLAYORDER=
